<?xml version="1.0" standalone="no"?>
<svg xmlns="http://www.w3.org/2000/svg" viewBox="0 0 39 60" width="39" height="60"><g fill="#92DCE5" color="#92DCE5" transform="translate(6.193 0) scale(0.7560976) "><svg width="35.0" height="41.0" x="0.0" y="0.0" viewBox="0 0 35 41"><path fill="currentColor" fill-rule="nonzero" d="M17.6 40.82C7.91 40.82.88 34.03.88 24.34v-2.02c0-.49.25-.49.39-.49 1.08 0 3.89 2.31 5.41 4.52.79 1.13 1.03 1.87.98 2.21h-.2c-.49 0-1.18-.15-1.43-.2l-.89-.25.3.89c1.67 4.67 4.67 7.23 9.74 8.07l.49.1V21.15h-5.51c-1.03 0-1.28-.93-1.28-1.72 0-.79.2-1.72 1.28-1.72h5.46v-5.02l-.2-.1a6.198 6.198 0 0 1-4.13-5.85c0-3.1 2.36-5.75 5.41-6.15.34-.1.59-.1.89-.1.25 0 .54.05.84.1 3.1.39 5.41 3.05 5.41 6.15 0 2.61-1.57 4.97-4.03 5.85l-.25.1v5.02h5.46c1.03 0 1.28.93 1.28 1.72 0 .79-.25 1.72-1.28 1.72h-5.46v16.03l.44-.1c5.07-.84 8.11-3.44 9.79-8.07l.3-.89-.89.25s-.84.2-1.43.2h-.25c-.05-.39.15-1.13.98-2.31 1.52-2.21 4.33-4.43 5.41-4.43.15 0-.05 0 .44.54v2.02c-.03 9.65-7.06 16.43-16.75 16.43zm0-37.32a3.25 3.25 0 0 0-3.25 3.25c0 1.82 1.43 3.25 3.25 3.25a3.25 3.25 0 1 0 0-6.5z"></path></svg></g><line x1="6.98602324695122" y1="37" x2="31.86163300304878" y2="37" stroke="#383D3B" stroke-linecap="round"></line><path fill="#383D3B" fill-rule="nonzero" d="M7.14 2.92L7.14 15.95Q6.57 15.88 4.24 15.88L4.24 15.88L3.87 15.88L3.87 2.92L1.55 2.92Q0.52 2.92 0.33 3.02Q0.14 3.13 0.04 3.21L0.04 3.21L0 3.20L0 0.20L0.04 0.16Q0.42 0.29 2.12 0.29L2.12 0.29L9.47 0.29Q10.50 0.29 10.69 0.19Q10.88 0.08 10.98 0L10.98 0L11.02 0.01L11.02 3.01L10.98 3.05Q10.59 2.92 8.89 2.92L8.89 2.92L7.14 2.92ZM20.52 0L20.52 0Q22.71 0 24.26 0.76L24.26 0.76L24.26 4.35L24.23 4.37Q23.58 3.36 21.47 3.04L21.47 3.04Q20.85 2.93 19.90 2.93Q18.95 2.93 18.04 3.29Q17.12 3.64 16.54 4.30L16.54 4.30Q15.40 5.58 15.40 7.95L15.40 7.95Q15.40 10.70 16.84 12.05L16.84 12.05Q18.04 13.17 20.00 13.17L20.00 13.17Q22.23 13.17 23.61 12.22L23.61 12.22Q24.12 11.88 24.47 11.38L24.47 11.38L24.50 11.40L24.50 14.68Q22.71 16.17 19.68 16.17L19.68 16.17Q16.10 16.17 14.07 13.90L14.07 13.90Q12.13 11.73 12.13 8.16L12.13 8.16Q12.13 4.37 14.26 2.19L14.26 2.19Q16.42 0 20.52 0ZM35.21 15.97L32.50 9.82Q32.14 9.84 31.75 9.84Q31.35 9.84 30.56 9.79L30.56 9.79L30.56 15.88L27.46 15.88L27.46 0.21Q29.10 0 31.49 0L31.49 0Q34.75 0 36.35 1.20Q37.95 2.40 37.95 4.91L37.95 4.91Q37.95 6.86 36.48 8.24L36.48 8.24Q36 8.68 35.38 9.01L35.38 9.01L37.77 14.05Q38.47 15.61 38.85 15.90L38.85 15.90L38.79 15.96Q37.65 15.77 35.21 15.97L35.21 15.97ZM31.71 2.77L31.71 2.77Q31.11 2.77 30.56 2.82L30.56 2.82L30.56 7.30Q31.14 7.38 31.91 7.38Q32.68 7.38 33.21 7.25Q33.74 7.11 34.13 6.83L34.13 6.83Q34.96 6.21 34.96 4.97Q34.96 3.73 34.09 3.22L34.09 3.22Q33.28 2.77 31.71 2.77Z" transform="translate(0, 43)"></path></svg>